# xmcd CD database file generated by Grip 3.3.1
# 
# Track frame offsets:
#       150
#       23260
#       46464
#       67694
#       92941
#       114962
#       138097
#       165232
#       193410
#       219346
#       237585
# 
# Disc length: 3422 seconds
# 
# Revision: 1
# Processed by: cddbd v1.5.2PL0 Copyright (c) Steve Scherf et al.
# Submitted via: Grip 3.3.1
# 
DISCID=880d5c0b
DTITLE=Dayron y el Boom - Mi Tumbao
DYEAR=2003
DGENRE=Salsa
TTITLE0=Chokolo
TTITLE1=Coge mi tumbao
TTITLE2=Boom boom
TTITLE3=Enganchao
TTITLE4=Entre tu amor y el mio
TTITLE5=Completamente enamorado
TTITLE6=Eres mi sueno
TTITLE7=Con lo que hay
TTITLE8=Panque tu querias estar conmigo
TTITLE9=A donde vas
TTITLE10=Justo al medio
EXTD=YEAR: 2003
EXTT0=
EXTT1=
EXTT2=
EXTT3=
EXTT4=
EXTT5=
EXTT6=
EXTT7=
EXTT8=
EXTT9=
EXTT10=
PLAYORDER=
